<svg width="200" height="200" viewBox="0 0 200 200" fill="none" xmlns="http://www.w3.org/2000/svg">
<path fill-rule="evenodd" clip-rule="evenodd" d="M42.5 177.875C42.5 175.666 44.2909 173.875 46.5 173.875H154.004C165.62 173.875 175 164.503 175 152.946V116C175 113.791 173.209 112 171 112H166.5H162.25C160.041 112 158.25 113.791 158.25 116V148.75C158.25 153.407 154.515 157.125 149.908 157.125H46.5C44.2909 157.125 42.5 155.334 42.5 153.125V141.657C42.5 138.093 38.1914 136.309 35.6716 138.828L11.8284 162.672C10.2663 164.234 10.2663 166.766 11.8284 168.328L35.6716 192.172C38.1914 194.691 42.5 192.907 42.5 189.343V177.875Z" fill="#FAD408"/>
<path fill-rule="evenodd" clip-rule="evenodd" d="M158.5 23.125C158.5 25.3341 156.709 27.125 154.5 27.125H46.996C35.3799 27.125 26 36.4966 26 48.0541V85C26 87.2091 27.7909 89 30 89H34.5H38.75C40.9591 89 42.75 87.2091 42.75 85V52.25C42.75 47.5935 46.4853 43.875 51.0915 43.875H154.5C156.709 43.875 158.5 45.6659 158.5 47.875V59.3431C158.5 62.9068 162.809 64.6914 165.328 62.1716L189.172 38.3284C190.734 36.7663 190.734 34.2337 189.172 32.6716L165.328 8.82844C162.809 6.30858 158.5 8.09324 158.5 11.6569V23.125Z" fill="#FAD408"/>
<path d="M91.46 117.56V144.44C90.4333 144.72 88.8 145 86.56 145.28C84.4133 145.56 82.2666 145.7 80.12 145.7C77.9733 145.7 76.06 145.513 74.38 145.14C72.7933 144.86 71.44 144.3 70.32 143.46C69.2933 142.62 68.5 141.453 67.94 139.96C67.38 138.467 67.1 136.507 67.1 134.08V68.14C67.1 66.18 67.6133 64.6867 68.64 63.66C69.76 62.54 71.2533 61.6533 73.12 61C76.2933 59.88 79.98 59.0867 84.18 58.62C88.38 58.06 92.86 57.78 97.62 57.78C110.5 57.78 120.207 60.4867 126.74 65.9C133.273 71.3133 136.54 78.64 136.54 87.88C136.54 93.6667 135.047 98.6133 132.06 102.72C129.073 106.827 125.527 110 121.42 112.24C124.78 116.813 128.093 121.107 131.36 125.12C134.627 129.133 137.193 132.773 139.06 136.04C138.127 139.307 136.4 141.827 133.88 143.6C131.453 145.28 128.7 146.12 125.62 146.12C123.567 146.12 121.793 145.887 120.3 145.42C118.807 144.953 117.5 144.3 116.38 143.46C115.26 142.62 114.233 141.593 113.3 140.38C112.367 139.167 111.48 137.86 110.64 136.46L98.88 117.56H91.46ZM100.28 98.94C103.827 98.94 106.627 98.0533 108.68 96.28C110.733 94.4133 111.76 91.7067 111.76 88.16C111.76 84.6133 110.593 81.9533 108.26 80.18C106.02 78.3133 102.427 77.38 97.48 77.38C96.08 77.38 94.96 77.4267 94.12 77.52C93.28 77.6133 92.3466 77.7533 91.32 77.94V98.94H100.28Z" fill="#175EF2"/>
</svg>
