<?xml version="1.0" encoding="UTF-8"?>
<svg version="1.1" xmlns="http://www.w3.org/2000/svg" width="256" height="256">
<path d="M0 0 C4.33280007 0.00569677 8.6655388 0.00229789 12.99833679 -0.00342178 C43.37818864 -0.03787716 43.37818864 -0.03787716 57.515625 0.51318359 C58.37929687 0.54354706 59.24296875 0.57391052 60.1328125 0.60519409 C75.13775423 1.31739444 87.50374908 5.75317788 97.890625 16.88037109 C108.68135117 29.78982432 109.35604148 45.0119851 109.34838867 61.13110352 C109.35174728 62.17014832 109.3551059 63.20919312 109.35856628 64.27972412 C109.3679896 67.68177519 109.37001509 71.08377657 109.37109375 74.48583984 C109.37431251 76.87559529 109.37767704 79.26535054 109.38117981 81.65510559 C109.3871497 86.65378272 109.38902194 91.65244261 109.38842773 96.65112305 C109.38832628 103.01769388 109.40197087 109.38415277 109.41919994 115.75069714 C109.43038601 120.6847432 109.43234491 125.61876277 109.43181801 130.55282021 C109.43298848 132.89806821 109.43735703 135.24331712 109.44515038 137.58855247 C109.57423771 180.44788428 109.57423771 180.44788428 95.203125 195.13037109 C82.30572827 206.04497839 69.58972596 208.44382388 53.06323242 208.4050293 C51.34110283 208.41269569 51.34110283 208.41269569 49.58418274 208.42051697 C45.82559859 208.43430608 42.06720003 208.43346417 38.30859375 208.43115234 C35.67124871 208.43504526 33.03390429 208.43938115 30.39656067 208.44413757 C24.88178896 208.4523169 19.36706857 208.45146542 13.85229492 208.44604492 C7.51636892 208.44001216 1.18066537 208.45231048 -5.15522271 208.47361499 C-11.29655217 208.49349076 -17.43777913 208.49638874 -23.5791378 208.49287987 C-26.17082936 208.49338997 -28.76252471 208.49856858 -31.35419655 208.50869179 C-67.12897997 208.63129237 -67.12897997 208.63129237 -79.796875 199.13037109 C-80.50328125 198.61603516 -81.2096875 198.10169922 -81.9375 197.57177734 C-90.67480252 190.61861866 -95.99660841 181.09814906 -97.796875 170.13037109 C-98.62961536 162.78590343 -98.94564587 155.51684828 -98.94213867 148.12963867 C-98.94549728 147.09059387 -98.9488559 146.05154907 -98.95231628 144.98101807 C-98.9617396 141.578967 -98.96376509 138.17696561 -98.96484375 134.77490234 C-98.96806251 132.3851469 -98.97142704 129.99539164 -98.97492981 127.6056366 C-98.9808997 122.60695947 -98.98277194 117.60829958 -98.98217773 112.60961914 C-98.98207628 106.24304831 -98.99572087 99.87658941 -99.01294994 93.51004505 C-99.02413601 88.57599899 -99.02609491 83.64197942 -99.02556801 78.70792198 C-99.02673848 76.36267397 -99.03110703 74.01742506 -99.03890038 71.67218971 C-99.16835945 28.68943148 -99.16835945 28.68943148 -83.84765625 13.15380859 C-62.96787416 -6.12614737 -26.39027339 -0.03499346 0 0 Z " fill="#212226" transform="translate(122.796875,23.86962890625)"/>
<path d="M0 0 C9.77979213 9.15948143 15.44112439 19.94275346 16.07421875 33.3203125 C16.47309029 49.62993981 12.70200454 61.22875362 1.2421875 73.30078125 C-15.48683208 89.139071 -41.16732777 90.27709384 -62.98046875 90.0859375 C-63.9476181 90.08400391 -64.91476746 90.08207031 -65.91122437 90.08007812 C-83.05265014 90.02364835 -99.37716244 88.28755669 -116.10546875 84.5234375 C-116.10546875 86.8334375 -116.10546875 89.1434375 -116.10546875 91.5234375 C-119.75274446 90.96599361 -121.16391183 89.71528371 -123.48046875 86.8984375 C-124.08246094 86.17914063 -124.68445313 85.45984375 -125.3046875 84.71875 C-125.89894531 83.99429688 -126.49320313 83.26984375 -127.10546875 82.5234375 C-128.16460569 81.27058668 -129.22686929 80.02036901 -130.29296875 78.7734375 C-130.7725 78.20496094 -131.25203125 77.63648438 -131.74609375 77.05078125 C-133.2147536 75.34329825 -133.2147536 75.34329825 -135.54296875 73.3359375 C-136.05859375 72.7378125 -136.57421875 72.1396875 -137.10546875 71.5234375 C-136.76281772 67.86087873 -135.09961089 66.22066684 -132.48046875 63.7734375 C-129.6946898 61.09690478 -127.05590524 58.39554587 -124.54296875 55.4609375 C-117.77446273 47.62126883 -117.77446273 47.62126883 -114.10546875 44.5234375 C-113.44546875 44.5234375 -112.78546875 44.5234375 -112.10546875 44.5234375 C-111.77546875 47.4934375 -111.44546875 50.4634375 -111.10546875 53.5234375 C-92.86876023 55.62080773 -74.77902284 56.84289485 -56.41796875 56.8984375 C-55.10904663 56.90967651 -55.10904663 56.90967651 -53.77368164 56.92114258 C-51.27584083 56.93881431 -48.77910294 56.9343742 -46.28125 56.921875 C-45.54191727 56.92782684 -44.80258453 56.93377869 -44.04084778 56.93991089 C-37.93269783 56.85786171 -33.03201335 55.04102008 -28.73046875 50.6484375 C-25.24683282 46.33972991 -25.37927116 41.98217299 -25.65625 36.62109375 C-26.37478412 31.66633236 -27.63125926 28.38914071 -31.7890625 25.25390625 C-36.2616833 22.53185961 -40.28700758 21.46436056 -45.43359375 21.20703125 C-46.51495605 21.14986938 -46.51495605 21.14986938 -47.61816406 21.09155273 C-48.52147461 21.04844971 -49.42478516 21.00534668 -50.35546875 20.9609375 C-53.24296875 20.8165625 -56.13046875 20.6721875 -59.10546875 20.5234375 C-59.10546875 29.7634375 -59.10546875 39.0034375 -59.10546875 48.5234375 C-70.47469952 48.5234375 -70.47469952 48.5234375 -75.98046875 48.0859375 C-77.05039063 48.00472656 -78.1203125 47.92351562 -79.22265625 47.83984375 C-82.10546875 47.5234375 -82.10546875 47.5234375 -84.0703125 47.01953125 C-88.05762687 46.04757554 -92.21970968 46.05914663 -96.3046875 45.8046875 C-99.10546875 45.5234375 -99.10546875 45.5234375 -100.10546875 44.5234375 C-100.21902126 43.13848533 -100.26498177 41.74788784 -100.2824707 40.35839844 C-100.30172356 39.03131866 -100.30172356 39.03131866 -100.32136536 37.6774292 C-100.32875229 36.71395569 -100.33613922 35.75048218 -100.34375 34.7578125 C-100.35182175 33.77226379 -100.35989349 32.78671509 -100.36820984 31.77130127 C-100.38207044 29.67974619 -100.39278371 27.5881683 -100.40063477 25.49658203 C-100.4178223 22.30066806 -100.461688 19.10579499 -100.50585938 15.91015625 C-100.51598804 13.88021596 -100.5245036 11.85026685 -100.53125 9.8203125 C-100.54875809 8.86493591 -100.56626617 7.90955933 -100.58430481 6.92523193 C-100.57025322 2.61533713 -100.53139675 0.20760186 -98.21166992 -3.51855469 C-76.60397066 -23.60592551 -21.28143747 -16.97161177 0 0 Z " fill="#127EF4" transform="translate(175.10546875,59.4765625)"/>
<path d="M0 0 C2.04296875 2.265625 2.04296875 2.265625 4.1875 5.25 C4.57043213 5.77779053 4.95336426 6.30558105 5.34790039 6.84936523 C6.5793239 8.55670848 7.79188399 10.27609671 9 12 C9.41572266 12.59119629 9.83144531 13.18239258 10.25976562 13.79150391 C20 27.67853324 20 27.67853324 20 30.6875 C18.04148741 37.17507297 14.31217306 41.62254139 8.4375 45 C1.74382027 47.97833412 -5.2364904 48.14484348 -12.32421875 46.44140625 C-22.30441749 42.34344645 -28.23673741 29.82142733 -33.5 21.0625 C-34.13164062 20.03576172 -34.76328125 19.00902344 -35.4140625 17.95117188 C-40 10.38238975 -40 10.38238975 -40 7 C-39.23558594 6.89042969 -38.47117188 6.78085938 -37.68359375 6.66796875 C-22.2032366 4.64874379 -22.2032366 4.64874379 -7.3125 0.25 C-3.06618163 -1.35238429 -3.06618163 -1.35238429 0 0 Z " fill="#075FEC" transform="translate(175,152)"/>
<path d="M0 0 C0.8156543 0.08564209 1.63130859 0.17128418 2.47167969 0.25952148 C5.55800075 0.58296059 8.64443957 0.9052475 11.73095703 1.22680664 C13.69963434 1.43224419 15.66817844 1.63895693 17.63671875 1.84570312 C19.54130859 2.04389648 19.54130859 2.04389648 21.484375 2.24609375 C22.63647461 2.36654053 23.78857422 2.4869873 24.97558594 2.61108398 C30.31222195 3.12681203 35.65702205 3.55475184 41 4 C41 15.55 41 27.1 41 39 C35.18141635 41.32743346 30.79310584 41.33192099 24.625 41.3125 C23.10132813 41.33666992 23.10132813 41.33666992 21.546875 41.36132812 C14.44887324 41.36593722 8.98752142 40.90677759 3.6875 35.75 C-0.80773466 28.4244324 -0.24341258 20.91058672 -0.125 12.5625 C-0.11597656 11.35400391 -0.10695313 10.14550781 -0.09765625 8.90039062 C-0.07420168 5.93338722 -0.04137794 2.96679857 0 0 Z " fill="#0B69ED" transform="translate(75,157)"/>
<path d="M0 0 C4.33280007 0.00569677 8.6655388 0.00229789 12.99833679 -0.00342178 C43.37818864 -0.03787716 43.37818864 -0.03787716 57.515625 0.51318359 C58.37929687 0.54354706 59.24296875 0.57391052 60.1328125 0.60519409 C74.06587964 1.26651857 86.0992917 5.00999936 96.1171875 15.04833984 C99.80449728 19.1043806 102.90133239 23.14315377 105.203125 28.13037109 C104.953125 30.56787109 104.953125 30.56787109 104.203125 32.13037109 C103.213125 29.16037109 103.213125 29.16037109 102.203125 26.13037109 C101.543125 26.13037109 100.883125 26.13037109 100.203125 26.13037109 C99.831875 25.44974609 99.460625 24.76912109 99.078125 24.06787109 C96.81625781 20.52427917 94.08891816 18.31504265 90.84765625 15.68115234 C90.03361328 14.91351563 90.03361328 14.91351563 89.203125 14.13037109 C89.203125 13.47037109 89.203125 12.81037109 89.203125 12.13037109 C88.130625 11.84162109 87.058125 11.55287109 85.953125 11.25537109 C82.203125 10.13037109 82.203125 10.13037109 80.34298134 9.12942219 C72.23266533 5.34289692 61.78731619 5.84026076 53.00634766 5.88745117 C51.86477203 5.88555283 50.72319641 5.88365448 49.54702759 5.88169861 C45.82034156 5.8780311 42.09385583 5.88863481 38.3671875 5.89990234 C35.75694807 5.90109623 33.1467082 5.90154686 30.53646851 5.90129089 C25.08825242 5.90222228 19.64009264 5.91083857 14.19189453 5.92456055 C7.90868842 5.94032789 1.6255436 5.9455567 -4.65768087 5.94482499 C-10.73228285 5.94421335 -16.80686186 5.9494383 -22.88145828 5.95761681 C-25.45463568 5.96079351 -28.02781486 5.96276855 -30.60099411 5.96351051 C-34.19284863 5.96568179 -37.78462678 5.9744417 -41.37646484 5.98510742 C-42.43426147 5.98465424 -43.49205811 5.98420105 -44.58190918 5.98373413 C-51.76434105 6.0148745 -58.12256392 6.23334124 -64.796875 9.13037109 C-65.51746094 9.32115234 -66.23804687 9.51193359 -66.98046875 9.70849609 C-77.57858677 12.86772711 -86.31448257 22.84027202 -91.796875 32.13037109 C-92.456875 32.13037109 -93.116875 32.13037109 -93.796875 32.13037109 C-94.456875 33.45037109 -95.116875 34.77037109 -95.796875 36.13037109 C-96.796875 34.13037109 -96.796875 34.13037109 -96.265625 32.06396484 C-91.65787657 20.19158079 -83.39750376 10.25412281 -71.66796875 4.90380859 C-50.52503718 -3.83585832 -22.56662923 -0.02992331 0 0 Z " fill="#686869" transform="translate(122.796875,23.86962890625)"/>
<path d="M0 0 C0 5.84959443 -5.46127901 10.57533179 -9.3125 14.6875 C-26.28287897 30.92163693 -54.49274549 31.44060032 -76.53125 31.22265625 C-92.76975557 30.82568171 -109.18699462 28.73472991 -125 25 C-125 23.68 -125 22.36 -125 21 C-122.60383917 21.28913879 -120.20810329 21.58130298 -117.8125 21.875 C-117.15830078 21.95363281 -116.50410156 22.03226563 -115.83007812 22.11328125 C-112.6427882 22.50602788 -109.48137824 22.90944239 -106.32397461 23.50341797 C-96.52402751 25.2811608 -86.82016587 25.372251 -76.8918457 25.37060547 C-73.96700772 25.37495611 -71.04371103 25.4113236 -68.11914062 25.44921875 C-47.03074476 25.57453067 -23.91193893 23.19813233 -8 8 C-6.22981752 6.05919752 -4.62477362 4.0678937 -3 2 C-2.01 1.34 -1.02 0.68 0 0 Z " fill="#11151C" transform="translate(185,123)"/>
<path d="M0 0 C2.67693303 -0.00134983 5.35386058 -0.00329084 8.03079224 -0.00579834 C13.62357591 -0.00941815 19.21630646 -0.00469251 24.80908203 0.00488281 C31.23132817 0.01575283 37.65344711 0.0122443 44.07569015 0.00123 C49.63372457 -0.00791275 55.19172121 -0.00909404 60.74976075 -0.00389266 C64.04991241 -0.00080962 67.34999288 -0.00107158 70.65014267 -0.00696564 C111.07285957 -0.06332313 111.07285957 -0.06332313 121.68359375 10.4140625 C125.66008234 14.67406673 129.10612056 18.94013417 131.5078125 24.265625 C131.2578125 26.703125 131.2578125 26.703125 130.5078125 28.265625 C129.5178125 25.295625 129.5178125 25.295625 128.5078125 22.265625 C127.8478125 22.265625 127.1878125 22.265625 126.5078125 22.265625 C126.1365625 21.585 125.7653125 20.904375 125.3828125 20.203125 C123.12094531 16.65953308 120.39360566 14.45029656 117.15234375 11.81640625 C116.33830078 11.04876953 116.33830078 11.04876953 115.5078125 10.265625 C115.5078125 9.605625 115.5078125 8.945625 115.5078125 8.265625 C114.4353125 7.976875 113.3628125 7.688125 112.2578125 7.390625 C108.5078125 6.265625 108.5078125 6.265625 106.64766884 5.26467609 C98.53735283 1.47815083 88.09200369 1.97551467 79.31103516 2.02270508 C78.16945953 2.02080673 77.02788391 2.01890839 75.85171509 2.01695251 C72.12502906 2.01328501 68.39854333 2.02388872 64.671875 2.03515625 C62.06163557 2.03635014 59.4513957 2.03680077 56.84115601 2.0365448 C51.39293992 2.03747619 45.94478014 2.04609248 40.49658203 2.05981445 C34.21337592 2.07558179 27.9302311 2.0808106 21.64700663 2.0800789 C15.57240465 2.07946726 9.49782564 2.08469221 3.42322922 2.09287071 C0.85005182 2.09604742 -1.72312736 2.09802245 -4.29630661 2.09876442 C-7.88816113 2.10093569 -11.47993928 2.10969561 -15.07177734 2.12036133 C-16.12957397 2.11990814 -17.18737061 2.11945496 -18.27722168 2.11898804 C-25.45965355 2.1501284 -31.81787642 2.36859515 -38.4921875 5.265625 C-39.21277344 5.45640625 -39.93335937 5.6471875 -40.67578125 5.84375 C-51.27389927 9.00298102 -60.00979507 18.97552592 -65.4921875 28.265625 C-66.1521875 28.265625 -66.8121875 28.265625 -67.4921875 28.265625 C-68.1521875 29.585625 -68.8121875 30.905625 -69.4921875 32.265625 C-70.4921875 30.265625 -70.4921875 30.265625 -69.890625 28.09375 C-66.84483033 20.42113748 -63.91688015 15.36874462 -56.4921875 11.265625 C-56.0384375 10.770625 -55.5846875 10.275625 -55.1171875 9.765625 C-52.62444277 7.46462987 -49.60617048 6.55416968 -46.4921875 5.265625 C-45.70780304 4.76383728 -44.92341858 4.26204956 -44.11526489 3.74505615 C-32.25549431 -2.94392455 -13.09186698 -0.02334033 0 0 Z " fill="#4D4D4D" transform="translate(96.4921875,27.734375)"/>
<path d="M0 0 C0.66 0.66 1.32 1.32 2 2 C1.690625 2.7425 1.38125 3.485 1.0625 4.25 C-4.32419624 23.26186908 -2.08487172 46.09196302 -2.02734375 65.74609375 C-2.02475178 66.66268391 -2.02215981 67.57927406 -2.01948929 68.52363968 C-1.99300512 77.12706672 -1.95330807 85.73041487 -1.90405273 94.33374023 C-1.87736328 99.08929475 -1.86027573 103.8448048 -1.84918404 108.60042 C-1.84298075 110.39903522 -1.83298355 112.19764154 -1.81910515 113.99621391 C-1.80000706 116.48378268 -1.79301287 118.97110836 -1.78881836 121.45874023 C-1.78005676 122.1977356 -1.77129517 122.93673096 -1.76226807 123.69812012 C-1.77209466 128.77209466 -1.77209466 128.77209466 -4 131 C-4.83731087 128.08011273 -5.12552817 125.48856383 -5.12698364 122.4549408 C-5.12980347 121.54819611 -5.13262329 120.64145142 -5.13552856 119.70722961 C-5.13350433 118.71966171 -5.1314801 117.73209381 -5.12939453 116.71459961 C-5.13114685 115.66854553 -5.13289917 114.62249146 -5.13470459 113.54473877 C-5.1391114 110.08059029 -5.13618771 106.61649277 -5.1328125 103.15234375 C-5.13348623 100.74060557 -5.13445684 98.32886746 -5.13571167 95.91712952 C-5.13718735 90.85563512 -5.13503954 85.79415836 -5.13037109 80.73266602 C-5.12469526 74.26566367 -5.12793998 67.79870302 -5.13394356 61.33170223 C-5.13757093 56.34637645 -5.13640023 51.36106042 -5.13381577 46.37573433 C-5.1331514 43.99286456 -5.13395769 41.60999389 -5.13629532 39.22712517 C-5.13885521 35.88178063 -5.13493359 32.5365018 -5.12939453 29.19116211 C-5.13141876 28.21776382 -5.13344299 27.24436554 -5.13552856 26.24147034 C-5.07809613 7.37142987 -5.07809613 7.37142987 0 0 Z " fill="#272A3E" transform="translate(29,56)"/>
<path d="M0 0 C2.86207152 1.28299758 5.0245088 2.530636 7 5 C7 5.99 7 6.98 7 8 C7.66 8 8.32 8 9 8 C16.95625391 15.95625391 16.10311144 29.62901358 16.13552856 40.16371155 C16.13350433 41.12611252 16.1314801 42.08851349 16.12939453 43.08007812 C16.13114685 44.12715439 16.13289917 45.17423065 16.13470459 46.2530365 C16.13906913 49.67912504 16.13620425 53.10516103 16.1328125 56.53125 C16.13348709 58.9329835 16.13445841 61.33471693 16.13571167 63.7364502 C16.13718133 68.75611017 16.13505763 73.77575227 16.13037109 78.79541016 C16.12467427 85.20728223 16.1279572 91.61911243 16.13394356 98.03098297 C16.13756893 102.98627026 16.13640151 107.94154773 16.13381577 112.89683533 C16.13315196 115.26016749 16.13395568 117.62350057 16.13629532 119.98683167 C16.13885438 123.29788551 16.13493569 126.60887293 16.12939453 129.91992188 C16.13141876 130.88232285 16.13344299 131.84472382 16.13552856 132.83628845 C16.11572672 139.27135863 15.67959512 145.60156801 15 152 C14.01 151.67 13.02 151.34 12 151 C12.16167664 150.04854599 12.32335327 149.09709198 12.4899292 148.11680603 C13.15123969 143.45528318 13.15529534 138.83224404 13.16113281 134.13110352 C13.16858017 132.68047012 13.16858017 132.68047012 13.17617798 131.20053101 C13.19074215 128.00998202 13.19759701 124.81948299 13.203125 121.62890625 C13.20595238 120.52892744 13.20877975 119.42894863 13.21169281 118.29563713 C13.22667295 112.45840085 13.23590604 106.62118914 13.24023438 100.78393555 C13.24567415 94.8215434 13.26960937 88.85938483 13.29820633 82.89706516 C13.31706541 78.25778101 13.3220508 73.61855008 13.32357025 68.97923088 C13.32655231 66.78572266 13.33442521 64.59221433 13.34775543 62.39874458 C13.41262106 50.8905015 13.08567949 39.52930178 11.79199219 28.08569336 C11.6923177 27.1197226 11.5926432 26.15375185 11.48994827 25.15850925 C10.23888601 15.3526421 5.91462337 7.773505 0 0 Z " fill="#2B2E43" transform="translate(216,42)"/>
<path d="M0 0 C3.80448294 1.26816098 4.18273294 2.50881807 6.1796875 5.91796875 C6.77910156 6.92537109 7.37851563 7.93277344 7.99609375 8.97070312 C8.61613281 10.03224609 9.23617187 11.09378906 9.875 12.1875 C17.26672738 25.99318444 17.26672738 25.99318444 30 34 C38.55864845 35.17106827 46.00329896 34.30740745 53 29 C55.30787048 26.4978799 57.22790873 23.90306009 59 21 C60 24 60 24 59.28515625 25.83203125 C55.52853432 31.91703866 50.90927811 36.6969073 44 39 C34.80826867 39.64590544 28.13167274 39.40200369 20.7578125 33.60546875 C15.89140963 29.37347974 12.9605611 23.95869219 9.75 18.4375 C9.13898438 17.40947266 8.52796875 16.38144531 7.8984375 15.32226562 C6.76486377 13.41276315 5.63630135 11.50026935 4.51464844 9.58374023 C3.47155173 7.80438943 2.40002146 6.04150403 1.30566406 4.29321289 C0 2 0 2 0 0 Z " fill="#0F141A" transform="translate(135,164)"/>
<path d="M0 0 C4.55311612 0.01039407 9.10623813 0.01483139 13.65936279 0.01983643 C22.52721705 0.03042897 31.39504334 0.04740153 40.26287842 0.06866455 C40.26287842 0.39866455 40.26287842 0.72866455 40.26287842 1.06866455 C39.63395691 1.0767514 39.0050354 1.08483826 38.35705566 1.09317017 C-0.74433766 1.58548178 -0.74433766 1.58548178 -39.82928467 2.77282715 C-41.66410175 2.84425761 -43.49915957 2.90978317 -45.33441162 2.96899414 C-57.91871945 3.38560258 -69.25690949 4.40021668 -79.73712158 12.06866455 C-80.60337158 12.39866455 -81.46962158 12.72866455 -82.36212158 13.06866455 C-85.16495195 14.24880365 -86.71886631 15.82615869 -88.73712158 18.06866455 C-89.72712158 17.73866455 -90.71712158 17.40866455 -91.73712158 17.06866455 C-83.04618379 7.04294109 -71.78824128 1.98930629 -58.66555786 0.89608765 C-39.14322337 -0.34847827 -19.55071173 -0.04948193 0 0 Z " fill="#77787B" transform="translate(126.73712158203125,23.93133544921875)"/>
<path d="M0 0 C0.66 0.66 1.32 1.32 2 2 C1.690625 2.7425 1.38125 3.485 1.0625 4.25 C-1.95690831 14.9067352 -1.42870424 26.95485692 -2 38 C-2.04324402 38.82461731 -2.08648804 39.64923462 -2.13104248 40.49884033 C-2.92387944 55.66088598 -3.53669912 70.82407106 -4 86 C-4.33 86 -4.66 86 -5 86 C-5.02328301 77.32388346 -5.04099581 68.64777786 -5.05181217 59.97163677 C-5.05700634 55.94193599 -5.0640402 51.91225675 -5.07543945 47.88256836 C-5.08639257 43.98571883 -5.09230287 40.08888989 -5.09487724 36.19202614 C-5.09670929 34.71346526 -5.10028625 33.23490537 -5.10573006 31.75635338 C-5.191271 7.53571597 -5.191271 7.53571597 0 0 Z " fill="#2F3146" transform="translate(29,56)"/>
<path d="M0 0 C0.680625 0.763125 1.36125 1.52625 2.0625 2.3125 C9.45887658 9.07939772 16.8372232 8.37650091 26.4375 8.1875 C27.74138672 8.17396484 29.04527344 8.16042969 30.38867188 8.14648438 C33.59287622 8.11127334 36.79622105 8.06202094 40 8 C39.67 9.32 39.34 10.64 39 12 C15.38308573 16.61622059 15.38308573 16.61622059 5.98828125 10.7421875 C2.69136745 8.18758086 1.20097088 6.72349517 0.0625 2.625 C0.0315625 1.325625 0.0315625 1.325625 0 0 Z " fill="#111419" transform="translate(76,189)"/>
<path d="M0 0 C2.08326131 -0.02709444 4.16662441 -0.04643873 6.25 -0.0625 C7.41015625 -0.07410156 8.5703125 -0.08570312 9.765625 -0.09765625 C13 0 13 0 14.86328125 0.47265625 C17.38806364 1.09577439 19.83034018 1.31919502 22.421875 1.53515625 C23.95908203 1.66567383 23.95908203 1.66567383 25.52734375 1.79882812 C26.59082031 1.88583984 27.65429688 1.97285156 28.75 2.0625 C30.36841797 2.19881836 30.36841797 2.19881836 32.01953125 2.33789062 C34.67945748 2.56151274 37.33959943 2.78210596 40 3 C39.67 4.32 39.34 5.64 39 7 C26.28065423 6.41626191 13.65923532 5.36106601 1 4 C0.67 2.68 0.34 1.36 0 0 Z " fill="#12161A" transform="translate(76,105)"/>
<path d="M0 0 C-2.01465666 1.07569903 -3.88013425 1.96677878 -6.0859375 2.578125 C-16.74721038 5.70737233 -25.49194286 15.66641121 -31 25 C-31.66 25 -32.32 25 -33 25 C-33.66 26.32 -34.32 27.64 -35 29 C-36 27 -36 27 -35.3984375 24.828125 C-32.35264283 17.15551248 -29.42469265 12.10311962 -22 8 C-21.54625 7.505 -21.0925 7.01 -20.625 6.5 C-15.58698273 1.84952252 -6.6729999 -0.40442424 0 0 Z " fill="#39393B" transform="translate(62,31)"/>
<path d="M0 0 C2.83392926 -0.08174796 5.66544819 -0.14084985 8.5 -0.1875 C9.29148437 -0.21263672 10.08296875 -0.23777344 10.8984375 -0.26367188 C17.82748221 -0.34886505 22.96930478 1.12999657 28.9375 4.8125 C31.47424208 7.50298403 31.75220321 9.36564708 32 13 C30.66536458 11.79557292 29.33072917 10.59114583 27.99609375 9.38671875 C21.88289113 5.1397776 16.32009664 4.50566797 9.0625 4.3125 C7.75055664 4.26125977 7.75055664 4.26125977 6.41210938 4.20898438 C4.27516746 4.12724343 2.13760782 4.0619287 0 4 C0 2.68 0 1.36 0 0 Z " fill="#12161A" transform="translate(116,80)"/>
<path d="M0 0 C0.33 0 0.66 0 1 0 C1 34.98 1 69.96 1 106 C0.01 105.67 -0.98 105.34 -2 105 C-1.83923477 104.04693466 -1.67846954 103.09386932 -1.51283264 102.11192322 C-0.85531469 97.47963078 -0.82485068 92.88136337 -0.79467773 88.20922852 C-0.78477814 87.25235641 -0.77487854 86.29548431 -0.76467896 85.30961609 C-0.73324571 82.16607078 -0.70837879 79.0225104 -0.68359375 75.87890625 C-0.66300851 73.69172283 -0.64201163 71.50454324 -0.62062073 69.31736755 C-0.5655622 63.57503376 -0.51608169 57.83266502 -0.46777344 52.090271 C-0.41743965 46.22486277 -0.36181571 40.35950495 -0.30664062 34.49414062 C-0.19925756 22.99613687 -0.09776889 11.49808924 0 0 Z " fill="#25283E" transform="translate(230,88)"/>
<path d="M0 0 C6.29538422 -0.68676919 9.65698679 0.35556977 14.76171875 4.09375 C20.64164287 9.10143407 25.81022513 14.92702095 29 22 C28.75 24.4375 28.75 24.4375 28 26 C27.34 24.02 26.68 22.04 26 20 C25.34 20 24.68 20 24 20 C23.62875 19.319375 23.2575 18.63875 22.875 17.9375 C20.61313281 14.39390808 17.88579316 12.18467156 14.64453125 9.55078125 C14.10183594 9.03902344 13.55914062 8.52726562 13 8 C13 7.34 13 6.68 13 6 C11.453125 5.5978125 11.453125 5.5978125 9.875 5.1875 C6.3514958 4.19001103 3.23119173 2.7338102 0 1 C0 0.67 0 0.34 0 0 Z " fill="#515259" transform="translate(199,30)"/>
<path d="M0 0 C6.37112683 1.54451559 9.74208223 7.18297879 13.640625 12.046875 C14.15109375 12.67078125 14.6615625 13.2946875 15.1875 13.9375 C15.63480469 14.50339844 16.08210938 15.06929687 16.54296875 15.65234375 C18.29481505 17.27268417 19.67482523 17.60666208 22 18 C21.67 19.32 21.34 20.64 21 22 C17.63062552 21.42008587 16.03447573 20.39650321 13.6875 17.9375 C13.08808594 17.31101563 12.48867188 16.68453125 11.87109375 16.0390625 C0 3.10229645 0 3.10229645 0 0 Z " fill="#111723" transform="translate(38,133)"/>
<path d="M0 0 C0.66 0.33 1.32 0.66 2 1 C0.44816214 2.80193989 -1.11531189 4.59095676 -2.6875 6.375 C-3.12255859 6.88289063 -3.55761719 7.39078125 -4.00585938 7.9140625 C-6.7568016 11.01141968 -9.01795535 12.80897403 -13 14 C-10.90908258 8.04892735 -8.29551299 6.17730779 -3 3 C-1.24850835 1.41754725 -1.24850835 1.41754725 0 0 Z " fill="#53545A" transform="translate(43,36)"/>
<path d="M0 0 C-2.83241368 3.14712631 -5.12051788 4.44820715 -9 6 C-11.27191416 8.02040748 -11.27191416 8.02040748 -13 10 C-13.99 9.67 -14.98 9.34 -16 9 C-14.89902432 7.87187697 -13.79408444 6.74762189 -12.6875 5.625 C-12.07261719 4.99851562 -11.45773438 4.37203125 -10.82421875 3.7265625 C-7.14357886 0.24295901 -4.95178925 -0.22007952 0 0 Z " fill="#66676B" transform="translate(51,32)"/>
<path d="M0 0 C6.46326465 -0.45356243 9.60931587 0.40621058 15 4 C15 4.66 15 5.32 15 6 C9.45949887 5.43174347 4.96284034 3.37113483 0 1 C0 0.67 0 0.34 0 0 Z " fill="#5E5E61" transform="translate(199,30)"/>
<path d="M0 0 C0.625 1.8125 0.625 1.8125 1 4 C0.01 5.485 0.01 5.485 -1 7 C-1.66 7 -2.32 7 -3 7 C-3.66 8.32 -4.32 9.64 -5 11 C-5.33 10.34 -5.66 9.68 -6 9 C-3.65625 2.4375 -3.65625 2.4375 0 0 Z " fill="#434451" transform="translate(32,49)"/>
<path d="M0 0 C-2.97280442 1.52433823 -5.97981157 2.89955928 -9.0625 4.1875 C-9.91972656 4.55230469 -10.77695312 4.91710938 -11.66015625 5.29296875 C-14 6 -14 6 -17 5 C-11.32598361 0.81203552 -6.9550488 -0.20456026 0 0 Z " fill="#434343" transform="translate(62,31)"/>
<path d="M0 0 C2.86207152 1.28299758 5.0245088 2.530636 7 5 C7 5.99 7 6.98 7 8 C7.66 8 8.32 8 9 8 C9.66 9.65 10.32 11.3 11 13 C7.23631354 11.74543785 6.56414558 10.30895631 4.375 7.0625 C3.76398438 6.16660156 3.15296875 5.27070312 2.5234375 4.34765625 C1 2 1 2 0 0 Z " fill="#38383F" transform="translate(216,42)"/>
<path d="M0 0 C0 0.66 0 1.32 0 2 C-7.425 1.01 -7.425 1.01 -15 0 C-15 -0.33 -15 -0.66 -15 -1 C-9.53891111 -2.4002792 -5.30723432 -1.42705634 0 0 Z " fill="#676869" transform="translate(206,29)"/>
<path d="M0 0 C0.66 0 1.32 0 2 0 C0.52307692 6.64615385 0.52307692 6.64615385 -2.125 8.4375 C-2.74375 8.623125 -3.3625 8.80875 -4 9 C-2.80100302 5.9168649 -1.52299523 2.93720508 0 0 Z " fill="#111E2F" transform="translate(187,116)"/>
</svg>
